# xmcd
#
# Track frame offsets: 
#        150
#        22122
#        39855
#        55058
#        69581
#        83059
#        101048
#        118577
#        131729
#        155149
#        170965
#        183420
#        203853
#        217519
#        232404
#        249131
#        267995
#        287330
#        304417
#
# Disc length: 4477 seconds
#
# Revision: 0
# Processed by: cddbd v1.5.2PL0 Copyright (c) Steve Scherf et al.
# Submitted via: ExactAudioCopy v0.99pb5
#
DISCID=14117b13
DTITLE=Chip Taylor - James Wesley Days (Best Of 99-10) [CD 2)
DYEAR=2010
DGENRE=Americana
TTITLE0=Forever's Going Underground (duet with Jill Johnson)
TTITLE1=Dance With Jesus
TTITLE2=Let's Leave This Town (duet with Carrie Rodriguez)
TTITLE3=Without Horses
TTITLE4=Sometimes I Act Just Like A Fool
TTITLE5=Dance With A Hole In Your Shoe
TTITLE6=The Way Of It (duet with John Prine)
TTITLE7=All The Rain (duet with Carrie Rodriguez)
TTITLE8=If I Stop Loving You
TTITLE9=Through Their Mother's Eyes (duet with Lucinda Williams)
TTITLE10=What A Smile You Had
TTITLE11=Angel Of The Morning (duet with Carrie Rodriguez)
TTITLE12=I Ain't Leaving Without You
TTITLE13=Big River
TTITLE14=You Are Danger (duet with Carrie Rodriguez)
TTITLE15=Holy Shit
TTITLE16=Joe Frazier
TTITLE17=We Come Up Shining (duet with Carrie Rodriguez)
TTITLE18=Temptation (duet with PP Arnold)
EXTD=
EXTT0=
EXTT1=
EXTT2=
EXTT3=
EXTT4=
EXTT5=
EXTT6=
EXTT7=
EXTT8=
EXTT9=
EXTT10=
EXTT11=
EXTT12=
EXTT13=
EXTT14=
EXTT15=
EXTT16=
EXTT17=
EXTT18=
PLAYORDER=
